<svg width="1238" height="924" viewBox="0 0 1238 924" fill="none" xmlns="http://www.w3.org/2000/svg">
<path d="M362 272.701V689.297H874V272.701H362ZM412.881 638.416V323.582H823.119V638.416H412.881Z" fill="#4B4B4B"/>
<path d="M565.437 440.1C585.012 440.1 600.938 424.174 600.938 404.597C600.938 385.022 585.012 369.096 565.437 369.096C545.86 369.096 529.934 385.022 529.934 404.597C529.934 424.174 545.86 440.1 565.437 440.1Z" fill="#4B4B4B"/>
<path d="M652.961 427.32C645.723 427.32 638.972 431.035 634.906 437.262L593.378 500.848C589.849 506.252 584.24 509.35 577.986 509.352C571.68 509.352 566.041 506.212 562.518 500.734C558.46 494.424 551.678 490.658 544.378 490.658C537.08 490.658 530.298 494.423 526.237 500.734L456.078 609.793H783.701L671.018 437.261C666.95 431.035 660.201 427.32 652.961 427.32Z" fill="#4B4B4B"/>
<line x1="234" y1="20" x2="234" y2="780" stroke="#4B4B4B" stroke-width="40" stroke-linecap="square" stroke-dasharray="82 82"/>
<line x1="1004" y1="144" x2="1004" y2="904" stroke="#4B4B4B" stroke-width="40" stroke-linecap="square" stroke-dasharray="82 82"/>
<line x1="234" y1="780" x2="1218" y2="780" stroke="#4B4B4B" stroke-width="40" stroke-linecap="square" stroke-dasharray="82 82"/>
<line x1="20" y1="143" x2="1004" y2="143" stroke="#4B4B4B" stroke-width="40" stroke-linecap="square" stroke-dasharray="82 82"/>
</svg>
