<svg width="1470" height="1291" viewBox="0 0 1470 1291" fill="none" xmlns="http://www.w3.org/2000/svg">
<g clip-path="url(#clip0_4212_31)">
<path d="M859.414 0H689.298H676.116L666.801 9.314L538.021 138.102L528.707 147.416V160.592V426.106C528.707 473.466 567.235 512.001 614.603 512.001H859.414C906.767 512.001 945.295 473.466 945.295 426.106V85.896C945.295 38.528 906.767 0 859.414 0ZM913.498 426.105C913.498 455.982 889.284 480.196 859.414 480.196H614.603C584.719 480.196 560.505 455.982 560.505 426.105V160.591H644.221C669.106 160.591 689.298 140.413 689.298 115.521V31.804H859.414C889.284 31.804 913.498 56.018 913.498 85.896V426.105Z" fill="#4B4B4B"/>
<path d="M624.912 312H594.087L573.948 233.91H600.252L610.664 291.313H611.349L622.446 233.91H648.202L659.573 291.313H659.984L670.533 233.91H695.741L675.602 312H644.914L635.598 262.132H634.776L624.912 312ZM698.343 233.91H755.198V250.35H723.003V264.598H750.129V279.394H723.003V295.286H755.061V312H698.343V233.91ZM810.865 270.763C817.076 271.494 821.505 273.594 824.154 277.065C826.803 280.444 828.127 284.554 828.127 289.395C828.127 292.409 827.67 295.286 826.757 298.026C825.844 300.675 824.748 302.958 823.469 304.876C822.19 306.703 821.094 307.89 820.181 308.438C816.528 310.813 805.385 312 786.753 312H760.175V233.91H792.37C799.677 233.91 805.568 234.321 810.043 235.143C814.61 235.874 818.309 237.609 821.14 240.349C823.971 242.998 825.387 247.062 825.387 252.542C825.387 257.291 824.2 261.127 821.825 264.05C819.542 266.973 815.888 268.982 810.865 270.078V270.763ZM799.905 250.487C798.992 249.574 797.896 249.026 796.617 248.843C795.43 248.569 793.512 248.432 790.863 248.432C788.214 248.432 786.205 248.478 784.835 248.569V265.283H786.205C786.662 265.283 788.58 265.283 791.959 265.283C795.338 265.283 797.576 265.055 798.672 264.598C799.494 264.233 800.225 263.274 800.864 261.721C801.595 260.168 801.96 258.479 801.96 256.652C801.96 253.912 801.275 251.857 799.905 250.487ZM802.234 296.245C802.873 295.697 803.376 294.692 803.741 293.231C804.198 291.678 804.426 290.126 804.426 288.573C804.426 286.655 804.152 284.874 803.604 283.23C803.147 281.495 802.508 280.262 801.686 279.531C800.864 278.709 799.677 278.161 798.124 277.887C796.663 277.613 794.151 277.476 790.589 277.476C788.306 277.476 786.388 277.522 784.835 277.613V297.478C789.128 297.569 792.964 297.524 796.343 297.341C799.722 297.067 801.686 296.702 802.234 296.245ZM864.472 233.499C871.87 233.499 878.126 234.184 883.241 235.554C888.355 236.924 892.42 239.573 895.434 243.5C898.539 247.336 900.092 252.862 900.092 260.077C900.092 263.274 899.589 266.562 898.585 269.941C897.671 273.229 896.484 276.106 895.023 278.572C893.653 281.038 892.42 282.636 891.324 283.367C890.045 284.28 887.214 285.011 882.83 285.559C878.446 286.016 873.285 286.244 867.349 286.244C865.248 286.244 862.006 286.153 857.622 285.97V312H832.962V233.91C842.552 233.636 853.055 233.499 864.472 233.499ZM874.747 268.708C875.66 267.521 876.117 265.146 876.117 261.584C876.117 256.926 875.112 253.638 873.103 251.72C871.185 249.802 867.805 248.843 862.965 248.843C861.321 248.843 859.54 248.98 857.622 249.254V270.078C858.535 270.169 860.316 270.215 862.965 270.215C869.997 270.215 873.925 269.713 874.747 268.708Z" fill="#4B4B4B"/>
</g>
<g clip-path="url(#clip1_4212_31)">
<path d="M378.414 779H208.298H195.116L185.801 788.314L57.021 917.102L47.707 926.416V939.592V1205.11C47.707 1252.47 86.235 1291 133.603 1291H378.414C425.767 1291 464.295 1252.47 464.295 1205.11V864.896C464.295 817.528 425.767 779 378.414 779ZM432.498 1205.11C432.498 1234.98 408.284 1259.2 378.414 1259.2H133.603C103.719 1259.2 79.505 1234.98 79.505 1205.11V939.591H163.221C188.106 939.591 208.298 919.413 208.298 894.521V810.804H378.414C408.284 810.804 432.498 835.018 432.498 864.896V1205.11Z" fill="#4B4B4B"/>
<path d="M157.474 1023.17C166.222 1023.17 173.62 1023.98 179.668 1025.6C185.716 1027.22 190.522 1030.36 194.086 1035C197.758 1039.54 199.594 1046.07 199.594 1054.6C199.594 1058.38 199 1062.27 197.812 1066.27C196.732 1070.15 195.328 1073.56 193.6 1076.47C191.98 1079.39 190.522 1081.28 189.226 1082.14C187.714 1083.22 184.366 1084.09 179.182 1084.73C173.998 1085.27 167.896 1085.54 160.876 1085.54C158.392 1085.54 154.558 1085.44 149.374 1085.22V1116H120.214V1023.66C131.554 1023.34 143.974 1023.17 157.474 1023.17ZM169.624 1064.81C170.704 1063.4 171.244 1060.6 171.244 1056.38C171.244 1050.88 170.056 1046.99 167.68 1044.72C165.412 1042.45 161.416 1041.32 155.692 1041.32C153.748 1041.32 151.642 1041.48 149.374 1041.8V1066.43C150.454 1066.54 152.56 1066.59 155.692 1066.59C164.008 1066.59 168.652 1066 169.624 1064.81ZM236.969 1078.74V1116H209.915V1023.66H237.293L261.755 1060.92C265.427 1066.43 268.235 1071.07 270.179 1074.85H270.665V1059.3V1023.66H297.557V1116H270.017L244.907 1077.12L237.617 1066.1H237.131L236.969 1078.74ZM394.214 1064.81V1110.98C386.978 1113.35 380.12 1115.08 373.64 1116.16C367.16 1117.24 361.706 1117.78 357.278 1117.78C342.59 1117.78 331.088 1113.95 322.772 1106.28C314.456 1098.61 310.298 1086.84 310.298 1070.96C310.298 1054.76 314.672 1042.67 323.42 1034.68C332.168 1026.58 344.48 1022.53 360.356 1022.53C368.672 1022.53 378.662 1023.77 390.326 1026.25C390.326 1028.41 390.11 1031.65 389.678 1035.97C389.246 1040.18 388.814 1043.15 388.382 1044.88L382.55 1044.72C375.422 1044.5 369.86 1044.4 365.864 1044.4C353.876 1044.4 347.342 1045.1 346.262 1046.5C344.534 1048.55 343.292 1051.74 342.536 1056.06C341.888 1060.38 341.564 1064.54 341.564 1068.53C341.564 1075.77 342.374 1081.39 343.994 1085.38C345.614 1089.38 348.098 1092.19 351.446 1093.81C354.794 1095.43 359.33 1096.24 365.054 1096.24H365.702V1064.81H394.214Z" fill="#4B4B4B"/>
</g>
<g clip-path="url(#clip2_4212_31)">
<path d="M1336.41 779H1166.3H1153.12L1143.8 788.314L1015.02 917.102L1005.71 926.416V939.592V1205.11C1005.71 1252.47 1044.24 1291 1091.6 1291H1336.41C1383.77 1291 1422.3 1252.47 1422.3 1205.11V864.896C1422.3 817.528 1383.77 779 1336.41 779ZM1390.5 1205.11C1390.5 1234.98 1366.28 1259.2 1336.41 1259.2H1091.6C1061.72 1259.2 1037.51 1234.98 1037.51 1205.11V939.591H1121.22C1146.11 939.591 1166.3 919.413 1166.3 894.521V810.804H1336.41C1366.28 810.804 1390.5 835.018 1390.5 864.896V1205.11Z" fill="#4B4B4B"/>
<path d="M1143.95 1023.66V1082.79C1143.95 1091 1143.19 1097.64 1141.68 1102.72C1140.17 1107.79 1137.47 1111.63 1133.58 1114.22C1129.8 1116.81 1124.45 1118.11 1117.54 1118.11C1110.2 1118.11 1102.48 1117.4 1094.38 1116L1096.81 1097.37C1099.83 1097.48 1103.29 1097.42 1107.17 1097.21C1111.06 1096.99 1113.28 1096.56 1113.82 1095.91C1114.46 1094.83 1114.79 1092.24 1114.79 1088.14C1114.79 1084.03 1114.79 1081.71 1114.79 1081.17V1023.66H1143.95ZM1197.13 1023.17C1205.88 1023.17 1213.28 1023.98 1219.33 1025.6C1225.37 1027.22 1230.18 1030.36 1233.74 1035C1237.42 1039.54 1239.25 1046.07 1239.25 1054.6C1239.25 1058.38 1238.66 1062.27 1237.47 1066.27C1236.39 1070.15 1234.99 1073.56 1233.26 1076.47C1231.64 1079.39 1230.18 1081.28 1228.88 1082.14C1227.37 1083.22 1224.02 1084.09 1218.84 1084.73C1213.66 1085.27 1207.55 1085.54 1200.53 1085.54C1198.05 1085.54 1194.22 1085.44 1189.03 1085.22V1116H1159.87V1023.66C1171.21 1023.34 1183.63 1023.17 1197.13 1023.17ZM1209.28 1064.81C1210.36 1063.4 1210.9 1060.6 1210.9 1056.38C1210.9 1050.88 1209.71 1046.99 1207.34 1044.72C1205.07 1042.45 1201.07 1041.32 1195.35 1041.32C1193.41 1041.32 1191.3 1041.48 1189.03 1041.8V1066.43C1190.11 1066.54 1192.22 1066.59 1195.35 1066.59C1203.67 1066.59 1208.31 1066 1209.28 1064.81ZM1330.25 1064.81V1110.98C1323.01 1113.35 1316.16 1115.08 1309.68 1116.16C1303.2 1117.24 1297.74 1117.78 1293.31 1117.78C1278.63 1117.78 1267.12 1113.95 1258.81 1106.28C1250.49 1098.61 1246.33 1086.84 1246.33 1070.96C1246.33 1054.76 1250.71 1042.67 1259.46 1034.68C1268.2 1026.58 1280.52 1022.53 1296.39 1022.53C1304.71 1022.53 1314.7 1023.77 1326.36 1026.25C1326.36 1028.41 1326.15 1031.65 1325.71 1035.97C1325.28 1040.18 1324.85 1043.15 1324.42 1044.88L1318.59 1044.72C1311.46 1044.5 1305.9 1044.4 1301.9 1044.4C1289.91 1044.4 1283.38 1045.1 1282.3 1046.5C1280.57 1048.55 1279.33 1051.74 1278.57 1056.06C1277.92 1060.38 1277.6 1064.54 1277.6 1068.53C1277.6 1075.77 1278.41 1081.39 1280.03 1085.38C1281.65 1089.38 1284.13 1092.19 1287.48 1093.81C1290.83 1095.43 1295.37 1096.24 1301.09 1096.24H1301.74V1064.81H1330.25Z" fill="#4B4B4B"/>
</g>
<path d="M408.066 767.721L508.066 709.986L408.066 652.251L408.066 767.721ZM549.933 522L449.933 579.735L549.933 637.47L549.933 522ZM453.066 689.778L461.727 694.778L513.594 604.942L504.933 599.942L496.273 594.942L444.406 684.778L453.066 689.778Z" fill="#4B4B4B"/>
<path d="M958 522L958 637.47L1058 579.735L958 522ZM1099.87 767.721L1099.87 652.251L999.867 709.986L1099.87 767.721ZM1003 599.942L994.34 604.942L1046.21 694.779L1054.87 689.779L1063.53 684.779L1011.66 594.942L1003 599.942Z" fill="#4B4B4B"/>
<path d="M548 1087L648 1144.74L648 1029.26L548 1087ZM922 1087L822 1029.26L822 1144.74L922 1087ZM638 1087L638 1097L832 1097L832 1087L832 1077L638 1077L638 1087Z" fill="#4B4B4B"/>
<defs>
<clipPath id="clip0_4212_31">
<rect width="512" height="512" fill="white" transform="translate(481)"/>
</clipPath>
<clipPath id="clip1_4212_31">
<rect width="512" height="512" fill="white" transform="translate(0 779)"/>
</clipPath>
<clipPath id="clip2_4212_31">
<rect width="512" height="512" fill="white" transform="translate(958 779)"/>
</clipPath>
</defs>
</svg>
